<svg width="1280" height="350" viewBox="0 0 1280 350" fill="none" xmlns="http://www.w3.org/2000/svg">
<rect width="1280" height="350" fill="#15C3D6"/>
<path d="M491.233 138.521V192.121C491.233 213.395 473.919 230.643 452.564 230.643H448.653L428.68 250.527C427.898 251.306 426.816 251.8 425.616 251.8C424.508 251.8 423.504 251.397 422.735 250.722L422.396 250.384L422.383 250.371L402.58 230.643H398.655C377.313 230.643 360 213.395 360 192.121V138.521C360 117.248 377.313 100 398.668 100H452.564C473.919 100 491.233 117.248 491.233 138.521Z" fill="#FFD666"/>
<path d="M390.555 174.253C386.748 174.253 384.578 178.574 386.787 181.694C395.376 193.849 409.577 201.774 425.623 201.774C441.669 201.774 455.858 193.836 464.446 181.694C466.655 178.574 464.485 174.253 460.678 174.253H390.555Z" fill="white"/>
<path d="M412.851 155.858H389.88V144.316C389.88 137.945 395.025 132.775 401.366 132.775C407.706 132.775 412.851 137.945 412.851 144.316V155.858Z" fill="white"/>
<path d="M461.367 155.858H438.396V144.316C438.396 137.945 443.541 132.775 449.882 132.775C456.222 132.775 461.367 137.945 461.367 144.316V155.858Z" fill="white"/>
<path d="M601.864 153.616C608.691 153.616 613.939 155.707 617.608 159.888C621.277 163.984 623.112 170.725 623.112 180.112V209.68C623.112 212.667 622.216 214.928 620.424 216.464C618.632 218 616.328 218.768 613.512 218.768C610.781 218.768 608.477 218 606.6 216.464C604.723 214.928 603.784 212.667 603.784 209.68V179.856C603.784 175.76 603.059 172.901 601.608 171.28C600.243 169.573 598.109 168.72 595.208 168.72C591.624 168.72 588.765 169.957 586.632 172.432C584.499 174.907 583.432 178.363 583.432 182.8V209.68C583.432 212.667 582.536 214.928 580.744 216.464C578.952 218 576.648 218.768 573.832 218.768C571.101 218.768 568.797 218 566.92 216.464C565.043 214.928 564.104 212.667 564.104 209.68V179.856C564.104 175.76 563.379 172.901 561.928 171.28C560.563 169.573 558.429 168.72 555.528 168.72C551.944 168.72 549.085 169.957 546.952 172.432C544.819 174.907 543.752 178.363 543.752 182.8V209.68C543.752 212.667 542.813 214.928 540.936 216.464C539.144 218 536.883 218.768 534.152 218.768C531.421 218.768 529.117 218 527.24 216.464C525.363 214.928 524.424 212.667 524.424 209.68V162.704C524.424 159.888 525.363 157.712 527.24 156.176C529.203 154.64 531.549 153.872 534.28 153.872C536.84 153.872 538.973 154.64 540.68 156.176C542.387 157.627 543.24 159.675 543.24 162.32V163.6C545.288 160.357 547.933 157.883 551.176 156.176C554.504 154.469 558.259 153.616 562.44 153.616C566.963 153.616 570.76 154.555 573.832 156.432C576.989 158.224 579.421 161.168 581.128 165.264C583.091 161.68 585.864 158.864 589.448 156.816C593.117 154.683 597.256 153.616 601.864 153.616ZM667.882 219.024C661.226 219.024 655.381 217.701 650.346 215.056C645.311 212.325 641.429 208.528 638.698 203.664C635.967 198.715 634.602 192.912 634.602 186.256C634.602 179.6 635.967 173.84 638.698 168.976C641.429 164.027 645.311 160.229 650.346 157.584C655.381 154.939 661.226 153.616 667.882 153.616C674.538 153.616 680.383 154.939 685.418 157.584C690.453 160.229 694.335 164.027 697.066 168.976C699.797 173.84 701.162 179.6 701.162 186.256C701.162 192.912 699.797 198.715 697.066 203.664C694.335 208.528 690.453 212.325 685.418 215.056C680.383 217.701 674.538 219.024 667.882 219.024ZM667.882 204.304C677.269 204.304 681.962 198.288 681.962 186.256C681.962 180.197 680.725 175.675 678.25 172.688C675.861 169.701 672.405 168.208 667.882 168.208C658.495 168.208 653.802 174.224 653.802 186.256C653.802 198.288 658.495 204.304 667.882 204.304ZM751.836 153.616C757.297 153.616 762.119 154.939 766.3 157.584C770.481 160.229 773.724 164.027 776.028 168.976C778.417 173.84 779.612 179.515 779.612 186C779.612 192.485 778.417 198.245 776.028 203.28C773.724 208.229 770.439 212.112 766.172 214.928C761.991 217.659 757.212 219.024 751.836 219.024C747.484 219.024 743.559 218.128 740.06 216.336C736.561 214.459 733.873 211.899 731.996 208.656V209.68C731.996 212.411 731.143 214.629 729.436 216.336C727.729 217.957 725.425 218.768 722.524 218.768C719.623 218.768 717.276 217.957 715.484 216.336C713.777 214.629 712.924 212.411 712.924 209.68V135.952C712.924 133.307 713.82 131.173 715.612 129.552C717.489 127.931 719.921 127.12 722.908 127.12C725.724 127.12 727.985 127.888 729.692 129.424C731.399 130.96 732.252 133.008 732.252 135.568V163.6C734.129 160.443 736.775 158.011 740.188 156.304C743.687 154.512 747.569 153.616 751.836 153.616ZM746.204 204.304C750.727 204.304 754.225 202.725 756.7 199.568C759.175 196.325 760.412 191.803 760.412 186C760.412 180.283 759.175 175.931 756.7 172.944C754.225 169.872 750.727 168.336 746.204 168.336C741.681 168.336 738.183 169.915 735.708 173.072C733.233 176.144 731.996 180.539 731.996 186.256C731.996 192.059 733.233 196.539 735.708 199.696C738.183 202.768 741.681 204.304 746.204 204.304ZM801.152 218.768C798.336 218.768 795.989 218 794.112 216.464C792.32 214.928 791.424 212.667 791.424 209.68V162.96C791.424 159.973 792.363 157.712 794.24 156.176C796.117 154.64 798.421 153.872 801.152 153.872C803.883 153.872 806.144 154.64 807.936 156.176C809.813 157.712 810.752 159.973 810.752 162.96V209.68C810.752 212.667 809.813 214.928 807.936 216.464C806.144 218 803.883 218.768 801.152 218.768ZM801.152 143.632C797.739 143.632 795.051 142.779 793.088 141.072C791.125 139.28 790.144 136.891 790.144 133.904C790.144 130.917 791.125 128.571 793.088 126.864C795.051 125.157 797.739 124.304 801.152 124.304C804.48 124.304 807.125 125.2 809.088 126.992C811.136 128.699 812.16 131.003 812.16 133.904C812.16 136.891 811.179 139.28 809.216 141.072C807.253 142.779 804.565 143.632 801.152 143.632ZM835.277 218.768C832.461 218.768 830.114 218 828.237 216.464C826.445 214.928 825.549 212.667 825.549 209.68V136.208C825.549 133.221 826.445 130.96 828.237 129.424C830.114 127.888 832.461 127.12 835.277 127.12C838.008 127.12 840.269 127.888 842.061 129.424C843.938 130.96 844.877 133.221 844.877 136.208V209.68C844.877 212.667 843.938 214.928 842.061 216.464C840.269 218 838.008 218.768 835.277 218.768ZM910.106 199.312C911.813 199.312 913.178 199.995 914.202 201.36C915.311 202.725 915.866 204.475 915.866 206.608C915.866 208.059 915.439 209.424 914.586 210.704C913.733 211.899 912.538 212.923 911.002 213.776C908.101 215.312 904.73 216.592 900.89 217.616C897.05 218.555 893.509 219.024 890.266 219.024C883.439 219.024 877.466 217.701 872.346 215.056C867.311 212.411 863.429 208.656 860.698 203.792C857.967 198.843 856.602 193.04 856.602 186.384C856.602 179.984 857.925 174.309 860.57 169.36C863.215 164.411 866.885 160.571 871.578 157.84C876.271 155.024 881.605 153.616 887.578 153.616C893.295 153.616 898.287 154.896 902.554 157.456C906.906 159.931 910.277 163.515 912.666 168.208C915.055 172.816 916.25 178.235 916.25 184.464C916.25 186.341 915.781 187.792 914.842 188.816C913.989 189.755 912.751 190.224 911.13 190.224H875.29C875.887 195.259 877.423 198.928 879.898 201.232C882.373 203.451 885.914 204.56 890.522 204.56C892.997 204.56 895.215 204.261 897.178 203.664C899.141 203.067 901.317 202.256 903.706 201.232C904.901 200.72 906.053 200.293 907.162 199.952C908.271 199.525 909.253 199.312 910.106 199.312ZM888.09 166.928C884.421 166.928 881.477 168.123 879.258 170.512C877.039 172.816 875.717 176.187 875.29 180.624H899.994C899.738 176.101 898.586 172.688 896.538 170.384C894.575 168.08 891.759 166.928 888.09 166.928Z" fill="white"/>
</svg>
