<svg width="1280" height="350" viewBox="0 0 1280 350" fill="none" xmlns="http://www.w3.org/2000/svg">
<rect width="1280" height="350" fill="#15C3D6"/>
<path d="M431.233 137.521V191.121C431.233 212.395 413.919 229.643 392.564 229.643H388.653L368.68 249.527C367.898 250.306 366.816 250.8 365.616 250.8C364.508 250.8 363.504 250.397 362.735 249.722L362.396 249.384L362.383 249.371L342.58 229.643H338.655C317.313 229.643 300 212.395 300 191.121V137.521C300 116.248 317.313 99 338.668 99H392.564C413.919 99 431.233 116.248 431.233 137.521Z" fill="#FFD666"/>
<path d="M330.555 173.253C326.748 173.253 324.578 177.574 326.787 180.694C335.376 192.849 349.577 200.774 365.623 200.774C381.669 200.774 395.858 192.836 404.446 180.694C406.655 177.574 404.485 173.253 400.678 173.253H330.555Z" fill="white"/>
<path d="M352.851 154.858H329.88V143.316C329.88 136.945 335.025 131.775 341.366 131.775C347.706 131.775 352.851 136.945 352.851 143.316V154.858Z" fill="white"/>
<path d="M401.367 154.858H378.396V143.316C378.396 136.945 383.541 131.775 389.882 131.775C396.222 131.775 401.367 136.945 401.367 143.316V154.858Z" fill="white"/>
<path d="M498.6 140.84C495.101 141.096 492.584 142.163 491.048 144.04C489.512 145.917 488.744 148.563 488.744 151.976V154.152H497.704C503.507 154.152 506.408 156.584 506.408 161.448C506.408 166.227 503.507 168.616 497.704 168.616H488.744V208.552C488.744 211.539 487.805 213.8 485.928 215.336C484.136 216.872 481.875 217.64 479.144 217.64C476.328 217.64 473.981 216.872 472.104 215.336C470.312 213.8 469.416 211.539 469.416 208.552V168.616H464.296C458.579 168.616 455.72 166.227 455.72 161.448C455.72 156.584 458.579 154.152 464.296 154.152H469.416C469.416 145.96 471.677 139.517 476.2 134.824C480.723 130.131 486.952 127.485 494.888 126.888L498.216 126.632L500.52 126.504C506.408 126.504 509.352 128.765 509.352 133.288C509.352 137.725 506.877 140.157 501.928 140.584L498.6 140.84ZM550.053 152.872C552.613 152.701 554.618 153.299 556.069 154.664C557.605 155.944 558.373 157.907 558.373 160.552C558.373 163.368 557.69 165.459 556.325 166.824C554.96 168.189 552.528 169.043 549.029 169.384L545.189 169.768C540.496 170.28 537.082 171.816 534.949 174.376C532.901 176.936 531.877 180.221 531.877 184.232V208.68C531.877 211.667 530.938 213.928 529.061 215.464C527.269 217 525.008 217.768 522.277 217.768C519.461 217.768 517.114 217 515.237 215.464C513.445 213.928 512.549 211.667 512.549 208.68V161.704C512.549 158.888 513.488 156.712 515.365 155.176C517.242 153.64 519.504 152.872 522.149 152.872C524.709 152.872 526.842 153.64 528.549 155.176C530.256 156.627 531.109 158.675 531.109 161.32V164.776C532.645 161.107 534.949 158.291 538.021 156.328C541.178 154.365 544.592 153.256 548.261 153L550.053 152.872ZM592.882 218.024C586.226 218.024 580.381 216.701 575.346 214.056C570.311 211.325 566.429 207.528 563.698 202.664C560.967 197.715 559.602 191.912 559.602 185.256C559.602 178.6 560.967 172.84 563.698 167.976C566.429 163.027 570.311 159.229 575.346 156.584C580.381 153.939 586.226 152.616 592.882 152.616C599.538 152.616 605.383 153.939 610.418 156.584C615.453 159.229 619.335 163.027 622.066 167.976C624.797 172.84 626.162 178.6 626.162 185.256C626.162 191.912 624.797 197.715 622.066 202.664C619.335 207.528 615.453 211.325 610.418 214.056C605.383 216.701 599.538 218.024 592.882 218.024ZM592.882 203.304C602.269 203.304 606.962 197.288 606.962 185.256C606.962 179.197 605.725 174.675 603.25 171.688C600.861 168.701 597.405 167.208 592.882 167.208C583.495 167.208 578.802 173.224 578.802 185.256C578.802 197.288 583.495 203.304 592.882 203.304ZM677.348 152.616C684.857 152.616 690.447 154.835 694.116 159.272C697.785 163.624 699.62 170.237 699.62 179.112V208.68C699.62 211.496 698.724 213.715 696.932 215.336C695.225 216.957 692.879 217.768 689.892 217.768C686.905 217.768 684.559 216.957 682.852 215.336C681.145 213.715 680.292 211.496 680.292 208.68V180.008C680.292 175.741 679.481 172.627 677.86 170.664C676.324 168.701 673.892 167.72 670.564 167.72C666.553 167.72 663.311 169 660.836 171.56C658.447 174.12 657.252 177.533 657.252 181.8V208.68C657.252 211.496 656.399 213.715 654.692 215.336C652.985 216.957 650.639 217.768 647.652 217.768C644.665 217.768 642.276 216.957 640.484 215.336C638.777 213.715 637.924 211.496 637.924 208.68V161.704C637.924 159.059 638.82 156.925 640.612 155.304C642.489 153.683 644.879 152.872 647.78 152.872C650.425 152.872 652.559 153.683 654.18 155.304C655.887 156.84 656.74 158.845 656.74 161.32V163.112C658.959 159.699 661.817 157.096 665.316 155.304C668.9 153.512 672.911 152.616 677.348 152.616ZM748.993 203.688C751.553 203.859 753.43 204.499 754.625 205.608C755.82 206.717 756.417 208.339 756.417 210.472C756.417 212.947 755.436 214.824 753.473 216.104C751.51 217.384 748.694 217.896 745.025 217.64L741.441 217.384C726.508 216.189 719.041 208.381 719.041 193.96V168.616H713.921C711.105 168.616 708.972 168.019 707.521 166.824C706.07 165.544 705.345 163.752 705.345 161.448C705.345 159.059 706.07 157.267 707.521 156.072C708.972 154.792 711.105 154.152 713.921 154.152H719.041V144.168C719.041 141.352 719.894 139.133 721.601 137.512C723.393 135.891 725.782 135.08 728.769 135.08C731.756 135.08 734.102 135.891 735.809 137.512C737.516 139.133 738.369 141.352 738.369 144.168V154.152H747.329C753.132 154.152 756.033 156.584 756.033 161.448C756.033 163.752 755.308 165.544 753.857 166.824C752.406 168.019 750.23 168.616 747.329 168.616H738.369V195.368C738.369 197.928 738.966 199.891 740.161 201.256C741.356 202.536 743.105 203.261 745.409 203.432L748.993 203.688ZM813.981 198.312C815.688 198.312 817.053 198.995 818.077 200.36C819.186 201.725 819.741 203.475 819.741 205.608C819.741 207.059 819.314 208.424 818.461 209.704C817.608 210.899 816.413 211.923 814.877 212.776C811.976 214.312 808.605 215.592 804.765 216.616C800.925 217.555 797.384 218.024 794.141 218.024C787.314 218.024 781.341 216.701 776.221 214.056C771.186 211.411 767.304 207.656 764.573 202.792C761.842 197.843 760.477 192.04 760.477 185.384C760.477 178.984 761.8 173.309 764.445 168.36C767.09 163.411 770.76 159.571 775.453 156.84C780.146 154.024 785.48 152.616 791.453 152.616C797.17 152.616 802.162 153.896 806.429 156.456C810.781 158.931 814.152 162.515 816.541 167.208C818.93 171.816 820.125 177.235 820.125 183.464C820.125 185.341 819.656 186.792 818.717 187.816C817.864 188.755 816.626 189.224 815.005 189.224H779.165C779.762 194.259 781.298 197.928 783.773 200.232C786.248 202.451 789.789 203.56 794.397 203.56C796.872 203.56 799.09 203.261 801.053 202.664C803.016 202.067 805.192 201.256 807.581 200.232C808.776 199.72 809.928 199.293 811.037 198.952C812.146 198.525 813.128 198.312 813.981 198.312ZM791.965 165.928C788.296 165.928 785.352 167.123 783.133 169.512C780.914 171.816 779.592 175.187 779.165 179.624H803.869C803.613 175.101 802.461 171.688 800.413 169.384C798.45 167.08 795.634 165.928 791.965 165.928ZM871.223 152.616C878.732 152.616 884.322 154.835 887.991 159.272C891.66 163.624 893.495 170.237 893.495 179.112V208.68C893.495 211.496 892.599 213.715 890.807 215.336C889.1 216.957 886.754 217.768 883.767 217.768C880.78 217.768 878.434 216.957 876.727 215.336C875.02 213.715 874.167 211.496 874.167 208.68V180.008C874.167 175.741 873.356 172.627 871.735 170.664C870.199 168.701 867.767 167.72 864.439 167.72C860.428 167.72 857.186 169 854.711 171.56C852.322 174.12 851.127 177.533 851.127 181.8V208.68C851.127 211.496 850.274 213.715 848.567 215.336C846.86 216.957 844.514 217.768 841.527 217.768C838.54 217.768 836.151 216.957 834.359 215.336C832.652 213.715 831.799 211.496 831.799 208.68V161.704C831.799 159.059 832.695 156.925 834.487 155.304C836.364 153.683 838.754 152.872 841.655 152.872C844.3 152.872 846.434 153.683 848.055 155.304C849.762 156.84 850.615 158.845 850.615 161.32V163.112C852.834 159.699 855.692 157.096 859.191 155.304C862.775 153.512 866.786 152.616 871.223 152.616ZM961.556 126.12C964.543 126.12 966.932 126.931 968.724 128.552C970.601 130.173 971.54 132.307 971.54 134.952V208.68C971.54 211.411 970.644 213.629 968.852 215.336C967.145 216.957 964.841 217.768 961.94 217.768C959.039 217.768 956.692 216.957 954.9 215.336C953.193 213.629 952.34 211.411 952.34 208.68V207.656C950.463 210.899 947.775 213.459 944.276 215.336C940.863 217.128 936.98 218.024 932.628 218.024C927.252 218.024 922.431 216.659 918.164 213.928C913.983 211.112 910.697 207.229 908.308 202.28C906.004 197.245 904.852 191.485 904.852 185C904.852 178.515 906.004 172.84 908.308 167.976C910.697 163.027 913.983 159.229 918.164 156.584C922.345 153.939 927.167 152.616 932.628 152.616C936.895 152.616 940.735 153.512 944.148 155.304C947.647 157.096 950.335 159.613 952.212 162.856V134.568C952.212 132.008 953.065 129.96 954.772 128.424C956.479 126.888 958.74 126.12 961.556 126.12ZM938.26 203.304C942.783 203.304 946.239 201.768 948.628 198.696C951.103 195.539 952.34 191.059 952.34 185.256C952.34 179.453 951.103 175.016 948.628 171.944C946.239 168.872 942.783 167.336 938.26 167.336C933.737 167.336 930.239 168.872 927.764 171.944C925.289 174.931 924.052 179.283 924.052 185C924.052 190.803 925.289 195.325 927.764 198.568C930.239 201.725 933.737 203.304 938.26 203.304Z" fill="white"/>
</svg>
