<svg width="1280" height="350" viewBox="0 0 1280 350" fill="none" xmlns="http://www.w3.org/2000/svg">
<rect width="1280" height="350" fill="#15C3D6"/>
<path d="M440.233 138.521V192.121C440.233 213.395 422.919 230.643 401.564 230.643H397.653L377.68 250.527C376.898 251.306 375.816 251.8 374.616 251.8C373.508 251.8 372.504 251.397 371.735 250.722L371.396 250.384L371.383 250.371L351.58 230.643H347.655C326.313 230.643 309 213.395 309 192.121V138.521C309 117.248 326.313 100 347.668 100H401.564C422.919 100 440.233 117.248 440.233 138.521Z" fill="#FFD666"/>
<path d="M339.555 174.253C335.748 174.253 333.578 178.574 335.787 181.694C344.376 193.849 358.577 201.774 374.623 201.774C390.669 201.774 404.858 193.836 413.446 181.694C415.655 178.574 413.485 174.253 409.678 174.253H339.555Z" fill="white"/>
<path d="M361.851 155.858H338.88V144.316C338.88 137.945 344.025 132.775 350.366 132.775C356.706 132.775 361.851 137.945 361.851 144.316V155.858Z" fill="white"/>
<path d="M410.367 155.858H387.396V144.316C387.396 137.945 392.541 132.775 398.882 132.775C405.222 132.775 410.367 137.945 410.367 144.316V155.858Z" fill="white"/>
<path d="M512.336 153.616C517.797 153.616 522.619 154.939 526.8 157.584C530.981 160.229 534.224 164.027 536.528 168.976C538.917 173.84 540.112 179.515 540.112 186C540.112 192.485 538.917 198.245 536.528 203.28C534.224 208.229 530.939 212.112 526.672 214.928C522.491 217.659 517.712 219.024 512.336 219.024C507.984 219.024 504.059 218.128 500.56 216.336C497.061 214.459 494.373 211.899 492.496 208.656V209.68C492.496 212.411 491.643 214.629 489.936 216.336C488.229 217.957 485.925 218.768 483.024 218.768C480.123 218.768 477.776 217.957 475.984 216.336C474.277 214.629 473.424 212.411 473.424 209.68V135.952C473.424 133.307 474.32 131.173 476.112 129.552C477.989 127.931 480.421 127.12 483.408 127.12C486.224 127.12 488.485 127.888 490.192 129.424C491.899 130.96 492.752 133.008 492.752 135.568V163.6C494.629 160.443 497.275 158.011 500.688 156.304C504.187 154.512 508.069 153.616 512.336 153.616ZM506.704 204.304C511.227 204.304 514.725 202.725 517.2 199.568C519.675 196.325 520.912 191.803 520.912 186C520.912 180.283 519.675 175.931 517.2 172.944C514.725 169.872 511.227 168.336 506.704 168.336C502.181 168.336 498.683 169.915 496.208 173.072C493.733 176.144 492.496 180.539 492.496 186.256C492.496 192.059 493.733 196.539 496.208 199.696C498.683 202.768 502.181 204.304 506.704 204.304ZM580.212 153.616C589.428 153.616 596.255 155.877 600.692 160.4C605.129 164.837 607.348 171.664 607.348 180.88V209.808C607.348 212.624 606.537 214.843 604.916 216.464C603.295 218 601.033 218.768 598.132 218.768C595.401 218.768 593.183 217.957 591.476 216.336C589.855 214.629 589.044 212.453 589.044 209.808V208.912C587.764 212.069 585.631 214.544 582.644 216.336C579.657 218.128 576.159 219.024 572.148 219.024C567.881 219.024 563.999 218.171 560.5 216.464C557.087 214.757 554.356 212.368 552.308 209.296C550.345 206.224 549.364 202.811 549.364 199.056C549.364 194.448 550.516 190.821 552.82 188.176C555.209 185.531 559.007 183.611 564.212 182.416C569.417 181.221 576.543 180.624 585.588 180.624H588.916V178.32C588.916 174.736 588.105 172.133 586.484 170.512C584.948 168.891 582.345 168.08 578.676 168.08C575.007 168.08 569.716 169.36 562.804 171.92C560.841 172.859 559.177 173.328 557.812 173.328C555.935 173.328 554.441 172.688 553.332 171.408C552.223 170.043 551.668 168.293 551.668 166.16C551.668 164.453 552.052 163.045 552.82 161.936C553.588 160.827 554.825 159.803 556.532 158.864C559.519 157.243 563.145 155.963 567.412 155.024C571.764 154.085 576.031 153.616 580.212 153.616ZM576.372 205.712C580.127 205.712 583.156 204.475 585.46 202C587.764 199.44 588.916 196.155 588.916 192.144V189.968H586.74C579.828 189.968 574.964 190.523 572.148 191.632C569.417 192.741 568.052 194.747 568.052 197.648C568.052 200.037 568.82 202 570.356 203.536C571.977 204.987 573.983 205.712 576.372 205.712ZM650.855 219.024C644.37 219.024 638.695 217.701 633.831 215.056C628.967 212.411 625.212 208.656 622.567 203.792C620.007 198.928 618.727 193.211 618.727 186.64C618.727 180.069 620.092 174.309 622.823 169.36C625.639 164.325 629.564 160.443 634.599 157.712C639.634 154.981 645.436 153.616 652.007 153.616C655.42 153.616 658.834 154.085 662.247 155.024C665.746 155.963 668.86 157.285 671.591 158.992C674.236 160.613 675.559 163.003 675.559 166.16C675.559 168.379 675.047 170.213 674.023 171.664C672.999 173.029 671.634 173.712 669.927 173.712C668.818 173.712 667.751 173.541 666.727 173.2C665.788 172.773 664.508 172.176 662.887 171.408C661.095 170.469 659.474 169.744 658.023 169.232C656.658 168.72 655.079 168.464 653.287 168.464C648.508 168.464 644.839 170 642.279 173.072C639.804 176.059 638.567 180.453 638.567 186.256C638.567 192.059 639.804 196.496 642.279 199.568C644.839 202.64 648.508 204.176 653.287 204.176C655.079 204.176 656.658 203.963 658.023 203.536C659.388 203.024 661.052 202.256 663.015 201.232C664.636 200.464 665.916 199.909 666.855 199.568C667.794 199.141 668.818 198.928 669.927 198.928C671.548 198.928 672.871 199.653 673.895 201.104C675.004 202.555 675.559 204.389 675.559 206.608C675.559 209.765 674.236 212.112 671.591 213.648C668.86 215.355 665.703 216.677 662.119 217.616C658.535 218.555 654.78 219.024 650.855 219.024ZM744.313 203.024C746.276 204.901 747.257 207.035 747.257 209.424C747.257 211.813 746.361 213.947 744.569 215.824C742.862 217.701 740.857 218.64 738.553 218.64C736.334 218.64 734.286 217.744 732.409 215.952L704.377 189.968V209.552C704.377 212.539 703.438 214.8 701.561 216.336C699.769 217.872 697.508 218.64 694.777 218.64C691.961 218.64 689.614 217.872 687.737 216.336C685.945 214.8 685.049 212.539 685.049 209.552V136.208C685.049 133.221 685.945 130.96 687.737 129.424C689.614 127.888 691.961 127.12 694.777 127.12C697.508 127.12 699.769 127.888 701.561 129.424C703.438 130.96 704.377 133.221 704.377 136.208V182.032L729.977 156.816C731.854 154.939 733.945 154 736.249 154C738.638 154 740.729 154.896 742.521 156.688C744.313 158.395 745.209 160.443 745.209 162.832C745.209 165.051 744.228 167.141 742.265 169.104L725.241 185.36L744.313 203.024ZM806.231 199.312C807.938 199.312 809.303 199.995 810.327 201.36C811.436 202.725 811.991 204.475 811.991 206.608C811.991 208.059 811.564 209.424 810.711 210.704C809.858 211.899 808.663 212.923 807.127 213.776C804.226 215.312 800.855 216.592 797.015 217.616C793.175 218.555 789.634 219.024 786.391 219.024C779.564 219.024 773.591 217.701 768.471 215.056C763.436 212.411 759.554 208.656 756.823 203.792C754.092 198.843 752.727 193.04 752.727 186.384C752.727 179.984 754.05 174.309 756.695 169.36C759.34 164.411 763.01 160.571 767.703 157.84C772.396 155.024 777.73 153.616 783.703 153.616C789.42 153.616 794.412 154.896 798.679 157.456C803.031 159.931 806.402 163.515 808.791 168.208C811.18 172.816 812.375 178.235 812.375 184.464C812.375 186.341 811.906 187.792 810.967 188.816C810.114 189.755 808.876 190.224 807.255 190.224H771.415C772.012 195.259 773.548 198.928 776.023 201.232C778.498 203.451 782.039 204.56 786.647 204.56C789.122 204.56 791.34 204.261 793.303 203.664C795.266 203.067 797.442 202.256 799.831 201.232C801.026 200.72 802.178 200.293 803.287 199.952C804.396 199.525 805.378 199.312 806.231 199.312ZM784.215 166.928C780.546 166.928 777.602 168.123 775.383 170.512C773.164 172.816 771.842 176.187 771.415 180.624H796.119C795.863 176.101 794.711 172.688 792.663 170.384C790.7 168.08 787.884 166.928 784.215 166.928ZM863.473 153.616C870.982 153.616 876.572 155.835 880.241 160.272C883.91 164.624 885.745 171.237 885.745 180.112V209.68C885.745 212.496 884.849 214.715 883.057 216.336C881.35 217.957 879.004 218.768 876.017 218.768C873.03 218.768 870.684 217.957 868.977 216.336C867.27 214.715 866.417 212.496 866.417 209.68V181.008C866.417 176.741 865.606 173.627 863.985 171.664C862.449 169.701 860.017 168.72 856.689 168.72C852.678 168.72 849.436 170 846.961 172.56C844.572 175.12 843.377 178.533 843.377 182.8V209.68C843.377 212.496 842.524 214.715 840.817 216.336C839.11 217.957 836.764 218.768 833.777 218.768C830.79 218.768 828.401 217.957 826.609 216.336C824.902 214.715 824.049 212.496 824.049 209.68V162.704C824.049 160.059 824.945 157.925 826.737 156.304C828.614 154.683 831.004 153.872 833.905 153.872C836.55 153.872 838.684 154.683 840.305 156.304C842.012 157.84 842.865 159.845 842.865 162.32V164.112C845.084 160.699 847.942 158.096 851.441 156.304C855.025 154.512 859.036 153.616 863.473 153.616ZM953.806 127.12C956.793 127.12 959.182 127.931 960.974 129.552C962.851 131.173 963.79 133.307 963.79 135.952V209.68C963.79 212.411 962.894 214.629 961.102 216.336C959.395 217.957 957.091 218.768 954.19 218.768C951.289 218.768 948.942 217.957 947.15 216.336C945.443 214.629 944.59 212.411 944.59 209.68V208.656C942.713 211.899 940.025 214.459 936.526 216.336C933.113 218.128 929.23 219.024 924.878 219.024C919.502 219.024 914.681 217.659 910.414 214.928C906.233 212.112 902.947 208.229 900.558 203.28C898.254 198.245 897.102 192.485 897.102 186C897.102 179.515 898.254 173.84 900.558 168.976C902.947 164.027 906.233 160.229 910.414 157.584C914.595 154.939 919.417 153.616 924.878 153.616C929.145 153.616 932.985 154.512 936.398 156.304C939.897 158.096 942.585 160.613 944.462 163.856V135.568C944.462 133.008 945.315 130.96 947.022 129.424C948.729 127.888 950.99 127.12 953.806 127.12ZM930.51 204.304C935.033 204.304 938.489 202.768 940.878 199.696C943.353 196.539 944.59 192.059 944.59 186.256C944.59 180.453 943.353 176.016 940.878 172.944C938.489 169.872 935.033 168.336 930.51 168.336C925.987 168.336 922.489 169.872 920.014 172.944C917.539 175.931 916.302 180.283 916.302 186C916.302 191.803 917.539 196.325 920.014 199.568C922.489 202.725 925.987 204.304 930.51 204.304Z" fill="white"/>
</svg>
